<svg xmlns="http://www.w3.org/2000/svg" fill="none" viewBox="0 0 24 24"><path fill="currentColor" fill-rule="evenodd" d="M17.5 20.5c-1.103 0-2-.897-2-2s.897-2 2-2 2 .897 2 2-.898 2-2 2M5.5 14c-1.103 0-2-.897-2-2s.897-2 2-2 2 .897 2 2-.897 2-2 2m12-10.5c1.102 0 2 .897 2 2s-.898 2-2 2c-1.103 0-2-.897-2-2s.897-2 2-2m0 11.5a3.49 3.49 0 0 0-2.75 1.34l-5.882-3.397c.083-.3.132-.616.132-.943a3.5 3.5 0 0 0-.136-.955l5.879-3.394a3.5 3.5 0 0 0 2.757 1.35A3.5 3.5 0 1 0 14 5.5c0 .273.034.538.094.793l-5.939 3.43a3.5 3.5 0 1 0 .008 4.545l5.934 3.426A3.5 3.5 0 0 0 14 18.5a3.5 3.5 0 1 0 3.5-3.5" clip-rule="evenodd"/></svg>