<svg xmlns="http://www.w3.org/2000/svg" fill="none" viewBox="0 0 24 24"><path fill="currentColor" fill-rule="evenodd" d="M18 2c1.38 0 2.72.72 3.46 2 .455.785.61 1.665.505 2.5a4 4 0 0 1-1.97 2.965L15.602 12 20 14.54a4 4 0 0 1 1.465 5.465 4.02 4.02 0 0 1-2.46 1.87c-.98.25-2.06.135-3.005-.41A3.994 3.994 0 0 1 14.535 16a3.96 3.96 0 0 1 2.01-1.725l-2.442-1.41-10.978 6.34a.751.751 0 0 1-.75-1.3l10.227-5.907L2.374 6.095a.75.75 0 0 1-.276-1.025.75.75 0 0 1 1.026-.275L14.1 11.133l2.439-1.408A4 4 0 0 1 14.53 8a3.94 3.94 0 0 1-.41-3 4 4 0 0 1 1.875-2.465A4 4 0 0 1 18 2m1.235 13.83a2.5 2.5 0 1 0 .01.005v-.005zm.925-11.08a2.501 2.501 0 0 0-4.33 2.5 2.505 2.505 0 0 0 3.405.92l.01-.005a2.5 2.5 0 0 0 .915-3.415" clip-rule="evenodd"/></svg>